#N canvas 1298 436 342 408 10;
#X obj 108 198 s;
#X obj 41 49 list split 1;
#X obj 21 126 list;
#X obj 21 79 t b s;
#X obj 22 153 list trim;
#X obj 18 17 netreceive 17777;
#N canvas 1470 150 450 300 main 0;
#X restore 171 113 pd main;
#X obj 52 307 netsend 15555 1;
#X obj -31 218 print received;
#X floatatom 132 42 5 0 0 0 - - -;
#X connect 1 0 3 0;
#X connect 1 1 2 1;
#X connect 2 0 4 0;
#X connect 3 0 2 0;
#X connect 3 1 0 1;
#X connect 4 0 0 0;
#X connect 5 0 1 0;
#X connect 5 0 8 0;
#X connect 5 1 9 0;
