#N canvas 446 69 423 148 10;
#X obj 38 21 cnv 15 100 100 empty empty purity 20 12 0 14 -258113 -66577
0;
#N canvas 1470 150 450 300 main 0;
#X restore 63 58 pd main;
#N canvas 0 0 544 462 guts 0;
#X obj -48 214 s;
#X obj -115 121 list split 1;
#X obj -115 163 list;
#X obj -115 142 t b s;
#X obj -115 183 list trim;
#X obj -134 18 netreceive 17777;
#X floatatom -41 39 5 0 0 0 - - -;
#X obj 11 155 spigot;
#X obj 63 342 netsend;
#X msg 92 317 connect localhost 15555;
#X obj 92 295 loadbang;
#X obj 63 400 sel 1 0;
#X obj 177 349 delay 100;
#X obj -134 60 t a a a;
#X msg 23 423 send __connected__ 1;
#X obj -134 323 list trim;
#X obj -101 257 r __enable_confirm__;
#X obj -134 301 list prepend send __confirm__;
#X obj 44 135 r __enable_verbose__;
#X obj 63 222 r __ping__;
#X msg 63 244 send __pong__;
#X obj 63 266 spigot;
#X obj -134 279 spigot;
#X msg 143 221 send __ping__;
#X obj 63 368 t f f;
#X obj 11 175 print PD_received;
#X obj 200 270 spigot;
#X obj 233 250 r __enable_verbose__;
#X obj 200 290 print PD_sends;
#X connect 1 0 3 0;
#X connect 1 1 2 1;
#X connect 2 0 4 0;
#X connect 3 0 2 0;
#X connect 3 1 0 1;
#X connect 4 0 0 0;
#X connect 5 0 13 0;
#X connect 5 1 6 0;
#X connect 7 0 25 0;
#X connect 8 0 24 0;
#X connect 9 0 8 0;
#X connect 10 0 9 0;
#X connect 11 0 14 0;
#X connect 11 1 12 0;
#X connect 12 0 9 0;
#X connect 13 0 22 0;
#X connect 13 1 1 0;
#X connect 13 2 7 0;
#X connect 14 0 21 0;
#X connect 15 0 21 0;
#X connect 16 0 22 1;
#X connect 17 0 15 0;
#X connect 18 0 7 1;
#X connect 19 0 20 0;
#X connect 20 0 21 0;
#X connect 21 0 8 0;
#X connect 21 0 26 0;
#X connect 22 0 17 0;
#X connect 23 0 21 0;
#X connect 24 0 11 0;
#X connect 24 1 21 1;
#X connect 26 0 28 0;
#X connect 27 0 26 1;
#X restore 63 83 pd guts;
