#N canvas 310 224 498 333 10;
#X obj 114 248 s;
#X obj 47 99 list split 1;
#X obj 29 173 list;
#X obj 29 126 t b s;
#X obj 28 203 list trim;
#X obj 42 16 netreceive 17777;
#X obj 169 243 print received;
#X floatatom 154 44 5 0 0 0 - - -;
#X obj 221 185 route verbose;
#X obj 176 211 spigot;
#X obj 230 159 r PURITY;
#X obj 210 19 cnv 15 100 100 empty empty purity 20 12 0 14 -258113
-66577 0;
#N canvas 1470 150 450 300 main 0;
#X restore 235 56 pd main;
#X connect 1 0 3 0;
#X connect 1 1 2 1;
#X connect 2 0 4 0;
#X connect 3 0 2 0;
#X connect 3 1 0 1;
#X connect 4 0 0 0;
#X connect 5 0 1 0;
#X connect 5 0 9 0;
#X connect 5 1 7 0;
#X connect 8 0 9 1;
#X connect 9 0 6 0;
#X connect 10 0 8 0;
