#N canvas 446 69 447 441 10;
#X obj -48 214 s;
#X obj -115 121 list split 1;
#X obj -115 163 list;
#X obj -115 142 t b s;
#X obj -115 183 list trim;
#X obj -134 18 netreceive 17777;
#X obj 11 175 print received;
#X floatatom -41 39 5 0 0 0 - - -;
#X obj 11 155 spigot;
#X obj 38 21 cnv 15 100 100 empty empty purity 20 12 0 14 -258113 -66577
0;
#N canvas 1470 150 450 300 main 0;
#X restore 63 58 pd main;
#X obj 2 330 netsend;
#X msg 2 303 connect localhost 15555;
#X obj 2 281 loadbang;
#X obj 2 353 sel 1 0;
#X obj 172 337 delay 100;
#X obj 44 135 r __verbose__;
#X obj -134 225 spigot;
#X obj -134 60 t a a a;
#X msg -91 396 send __connected__ 1;
#X obj -89 257 r __confirm__;
#X obj -134 279 spigot 1;
#X obj -134 301 list prepend send;
#X obj -134 323 list trim;
#X connect 1 0 3 0;
#X connect 1 1 2 1;
#X connect 2 0 4 0;
#X connect 3 0 2 0;
#X connect 3 1 0 1;
#X connect 4 0 0 0;
#X connect 5 0 18 0;
#X connect 5 1 7 0;
#X connect 8 0 6 0;
#X connect 11 0 14 0;
#X connect 11 0 17 1;
#X connect 12 0 11 0;
#X connect 13 0 12 0;
#X connect 14 0 19 0;
#X connect 14 1 15 0;
#X connect 15 0 12 0;
#X connect 16 0 8 1;
#X connect 17 0 21 0;
#X connect 18 0 17 0;
#X connect 18 1 1 0;
#X connect 18 2 8 0;
#X connect 19 0 11 0;
#X connect 20 0 21 1;
#X connect 21 0 22 0;
#X connect 22 0 23 0;
#X connect 23 0 11 0;
