#N canvas 15 86 587 408 10;
#X obj 355 8 pgmout;
#X obj 355 -15 unpack f f;
#X msg -22 -33 \$1 76;
#X obj -22 -11 s \$0-out;
#X obj -19 -54 hsl 50 15 0 127 0 0 empty empty empty -2 -8 0 10 -258113
-1 -1 700 1;
#X obj 39 -11 s \$0-out;
#X obj 42 -54 hsl 50 15 0 127 0 0 empty empty empty -2 -8 0 10 -258113
-1 -1 4800 1;
#X obj 100 -11 s \$0-out;
#X obj 103 -54 hsl 50 15 0 127 0 0 empty empty empty -2 -8 0 10 -258113
-1 -1 2700 1;
#X obj 161 -11 s \$0-out;
#X obj 164 -54 hsl 50 15 0 127 0 0 empty empty empty -2 -8 0 10 -258113
-1 -1 1000 1;
#X msg 100 -33 \$1 74;
#X obj 221 -53 nbx 5 14 0 127 0 0 empty empty empty 0 -8 0 10 -257985
-1 -1 0 256;
#X obj 161 -33 pack f 0;
#X msg 355 -37 1 \$1;
#X obj 355 -57 hradio 15 1 0 10 empty empty empty 0 -8 0 10 -258113
-1 -1 0;
#X msg -24 82 60 \$1;
#X obj -24 106 s \$0-n;
#X obj 22 106 s \$0-n;
#X msg 22 82 61 \$1;
#X obj 68 106 s \$0-n;
#X obj 114 106 s \$0-n;
#X msg 68 82 62 \$1;
#X msg 114 82 63 \$1;
#X obj 160 106 s \$0-n;
#X obj 206 106 s \$0-n;
#X obj 252 106 s \$0-n;
#X obj 298 106 s \$0-n;
#X msg 160 82 64 \$1;
#X msg 206 82 65 \$1;
#X msg 252 82 66 \$1;
#X msg 298 82 67 \$1;
#X text -26 35 MIDI notes -----------------------------------------------
;
#X text 354 -77 Program number ----------;
#X text 371 36 MIDI pedals -----------;
#X obj 372 104 s \$0-out;
#X msg 372 82 \$1 64;
#X obj 372 57 tgl 20 0 empty empty empty 17 7 0 10 -258113 -1 -1 1
1;
#X obj 440 104 s \$0-out;
#X obj 440 57 tgl 20 0 empty empty empty 17 7 0 10 -258113 -1 -1 0
1;
#X msg 440 82 \$1 80;
#X text -25 -77 MIDI controls ------------------------------------
;
#X text -27 -107 This simple patch can be useful to test MIDI controls
and notes.;
#X obj -26 -130 cnv 15 200 20 empty empty MIDI_test_patch 20 12 0 14
-233017 -66577 0;
#X obj 192 214 ctlout;
#X text -29 131 Make sure the MIDI is enabled.;
#X text -29 145 pd -alsamidi -midioutdev 1;
#X obj 192 188 unpack f f 1;
#X obj -27 214 noteout;
#X obj -27 190 unpack f f 1;
#X text -30 234 [noteout]: note \, velocity \, channel;
#X text 190 234 [ctlout]: value \, controller \, channel;
#X obj 192 165 r \$0-out;
#X obj -27 168 r \$0-n;
#X obj -25 49 bng 25 250 50 0 empty empty empty 17 7 0 10 -258113 -1
-1;
#X obj 22 50 bng 25 250 50 0 empty empty empty 17 7 0 10 -258113 -1
-1;
#X obj 295 51 bng 25 250 50 0 empty empty empty 17 7 0 10 -258113 -1
-1;
#X obj 115 52 bng 25 250 50 0 empty empty empty 17 7 0 10 -258113 -1
-1;
#X obj 160 52 bng 25 250 50 0 empty empty empty 17 7 0 10 -258113 -1
-1;
#X obj 208 52 bng 25 250 50 0 empty empty empty 17 7 0 10 -258113 -1
-1;
#X obj 250 49 bng 25 250 50 0 empty empty empty 17 7 0 10 -258113 -1
-1;
#X obj 68 53 bng 25 250 50 0 empty empty empty 17 7 0 10 -258113 -1
-1;
#X text -21 12 xfade;
#X text 106 8 contrast;
#X msg 39 -33 \$1 71;
#X text 32 14 saturation;
#X text 221 -31 38: livefeed opacity;
#X text 220 -20 10: playback opacity;
#X connect 1 0 0 0;
#X connect 1 1 0 1;
#X connect 2 0 3 0;
#X connect 4 0 2 0;
#X connect 6 0 64 0;
#X connect 8 0 11 0;
#X connect 10 0 13 0;
#X connect 11 0 7 0;
#X connect 12 0 13 1;
#X connect 13 0 9 0;
#X connect 14 0 1 0;
#X connect 15 0 14 0;
#X connect 16 0 17 0;
#X connect 19 0 18 0;
#X connect 22 0 20 0;
#X connect 23 0 21 0;
#X connect 28 0 24 0;
#X connect 29 0 25 0;
#X connect 30 0 26 0;
#X connect 31 0 27 0;
#X connect 36 0 35 0;
#X connect 37 0 36 0;
#X connect 39 0 40 0;
#X connect 40 0 38 0;
#X connect 47 0 44 0;
#X connect 47 1 44 1;
#X connect 47 2 44 2;
#X connect 49 0 48 0;
#X connect 49 1 48 1;
#X connect 49 2 48 2;
#X connect 52 0 47 0;
#X connect 53 0 49 0;
#X connect 54 0 16 0;
#X connect 55 0 19 0;
#X connect 56 0 31 0;
#X connect 57 0 23 0;
#X connect 58 0 28 0;
#X connect 59 0 29 0;
#X connect 60 0 30 0;
#X connect 61 0 22 0;
#X connect 64 0 5 0;
