#N canvas 334 318 400 433 10;
#X obj 147 366 noteout;
#X obj 135 60 random 5;
#X obj 134 175 list split 1;
#X obj 100 151 list split;
#X obj 134 84 t b f;
#X obj 232 254 f;
#X msg 239 296 \$1 0;
#X obj 151 323 unpack f f 1;
#X obj 136 35 metro 250;
#X obj 138 -22 tgl 50 0 empty empty empty 17 7 0 10 -195568 -1 -1 1
1;
#X text 252 320 <-- channel;
#X msg 151 285 \$1 127;
#X obj 49 238 print;
#X obj 169 220 t f f b;
#X obj 234 275 sel bang;
#X obj 271 77 list length;
#X msg 59 123 60 62 64 67 69 72 74 76 79 81 84;
#X connect 1 0 4 0;
#X connect 2 0 12 0;
#X connect 2 0 13 0;
#X connect 3 1 2 0;
#X connect 4 0 16 0;
#X connect 4 1 3 1;
#X connect 5 0 14 0;
#X connect 6 0 7 0;
#X connect 7 0 0 0;
#X connect 7 1 0 1;
#X connect 7 2 0 2;
#X connect 8 0 1 0;
#X connect 9 0 8 0;
#X connect 11 0 7 0;
#X connect 13 0 11 0;
#X connect 13 1 5 1;
#X connect 13 2 5 0;
#X connect 14 1 6 0;
#X connect 15 0 1 1;
#X connect 16 0 3 0;
#X connect 16 0 15 0;
