#N canvas 616 239 641 360 10;
#X obj 10 138 ctlout;
#X obj 18 -11 tgl 15 0 empty empty empty 17 7 0 10 -258113 -1 -1 0
127;
#X text 8 -74 Make sure the MIDI is enabled.;
#X text 8 -60 pd -alsamidi -midioutdev 1;
#X msg 18 6 \$1 64;
#X obj 27 32 tgl 15 0 empty empty empty 17 7 0 10 -258113 -1 -1 0 127
;
#X msg 27 49 \$1 80;
#X obj 18 81 unpack f f 1;
#X obj 339 134 noteout;
#X obj 344 88 unpack f f 1;
#X text 336 154 [noteout]: note \, velocity \, channel;
#X text 8 158 [ctlout]: value \, controller \, channel;
#X obj 308 3 tgl 15 0 empty empty empty 17 7 0 10 -258113 -1 -1 127
127;
#X obj 356 3 tgl 15 0 empty empty empty 17 7 0 10 -258113 -1 -1 127
127;
#X obj 404 3 tgl 15 0 empty empty empty 17 7 0 10 -258113 -1 -1 0 127
;
#X obj 452 3 tgl 15 0 empty empty empty 17 7 0 10 -258113 -1 -1 127
127;
#X obj 512 41 tgl 15 0 empty empty empty 17 7 0 10 -258113 -1 -1 0
127;
#X msg 404 20 64 \$1;
#X msg 452 20 65 \$1;
#X msg 355 20 65 \$1;
#X text 39 -15 add_image;
#X msg 308 20 64 \$1;
#X text 48 28 video_record_[on|off];
#X text 309 -22 select_clip [n];
#X msg 512 58 59 \$1;
#X text 533 37 remove_image;
#X connect 1 0 4 0;
#X connect 4 0 7 0;
#X connect 5 0 6 0;
#X connect 6 0 7 0;
#X connect 7 0 0 0;
#X connect 7 1 0 1;
#X connect 7 2 0 2;
#X connect 9 0 8 0;
#X connect 9 1 8 1;
#X connect 9 2 8 2;
#X connect 12 0 21 0;
#X connect 13 0 19 0;
#X connect 14 0 17 0;
#X connect 15 0 18 0;
#X connect 16 0 24 0;
#X connect 17 0 9 0;
#X connect 18 0 9 0;
#X connect 19 0 9 0;
#X connect 21 0 9 0;
#X connect 24 0 9 0;
