#N canvas 2154 560 342 263 10;
#X obj 150 220 s;
#X obj 20 49 list split 1;
#X obj 21 126 list;
#X obj 21 79 t b s;
#X obj 22 153 list trim;
#X obj 18 17 netreceive 17777;
#X text 128 18 1 = UDP;
#N canvas 2069 150 450 300 main 1;
#X restore 171 113 pd main;
#X obj -4 209 print s;
#X connect 1 0 3 0;
#X connect 1 1 2 1;
#X connect 2 0 4 0;
#X connect 3 0 2 0;
#X connect 3 1 0 1;
#X connect 4 0 0 0;
#X connect 5 0 1 0;
#X connect 5 0 8 0;
