#N canvas 2154 560 342 263 10;
#N canvas 2069 150 450 300 \$0-dynamic 1;
#X restore -8 130 pd \$0-dynamic;
#X obj -8 105 s pd-\$0-dynamic;
#X obj 170 246 s;
#X obj 118 100 list split 1;
#X obj 87 188 list;
#X obj 87 141 t b s;
#X obj 6 48 route send;
#X obj 88 215 list trim;
#X obj -13 15 netreceive 17777;
#X text 131 15 1 = UDP;
#X connect 3 0 5 0;
#X connect 3 1 4 1;
#X connect 4 0 7 0;
#X connect 5 0 4 0;
#X connect 5 1 2 1;
#X connect 6 0 3 0;
#X connect 6 1 1 0;
#X connect 7 0 2 0;
#X connect 8 0 6 0;
