#N canvas 369 111 719 454 10;
#X obj 189 208 cnv 15 120 120 empty empty empty 20 12 0 14 -258113
-66577 0;
#X msg 194 282 /quit;
#X msg 192 252 /ping hello 1 2;
#X obj 132 333 s toonloop;
#X obj 340 366 s toonloop;
#X text 320 115 <-- Main Network sub patch is HERE;
#X text 322 145 <-- Made by Alexandre Quessy in 2009;
#X text 320 160 <-- GNU GPL version 3;
#X text 41 383 http://alexandre.quessy.net;
#X text 45 368 Alexandre Quessy;
#X msg 340 337 /call fiddle \$1;
#X obj 70 71 cnv 15 240 120 empty empty empty 20 12 0 14 -258113 -66577
0;
#N canvas 672 317 313 469 NETWORK_SUB_PATCH 0;
#X obj 18 93 bng 50 250 50 0 empty empty Connect 17 7 0 10 -4034 -1
-1;
#X obj 84 114 list trim;
#X obj 18 231 netsend;
#X msg 18 207 disconnect;
#X floatatom 18 252 0 0 0 0 - - -;
#X msg 18 184 connect localhost 15555;
#X obj 85 240 netreceive 17777;
#X obj 18 160 t b b;
#X obj 74 158 loadbang;
#X obj 85 261 print received;
#X obj 82 137 print sending;
#X obj 85 361 print sending;
#X obj 85 281 route /ping;
#X obj 85 301 list prepend /pong;
#X obj 85 321 list prepend send;
#X obj 85 341 list trim;
#X obj 85 71 r toonloop;
#X obj 85 91 list prepend send;
#X text 15 49 |--- FUDI ASCII with ToonLoop ---|;
#X obj 25 23 inlet;
#X connect 0 0 7 0;
#X connect 1 0 2 0;
#X connect 1 0 10 0;
#X connect 2 0 4 0;
#X connect 3 0 2 0;
#X connect 5 0 2 0;
#X connect 6 0 9 0;
#X connect 6 0 12 0;
#X connect 6 1 7 0;
#X connect 7 0 5 0;
#X connect 7 1 3 0;
#X connect 8 0 5 0;
#X connect 12 0 13 0;
#X connect 13 0 14 0;
#X connect 14 0 15 0;
#X connect 15 0 11 0;
#X connect 15 0 2 0;
#X connect 16 0 17 0;
#X connect 17 0 1 0;
#X connect 19 0 0 0;
#X restore 90 152 pd NETWORK_SUB_PATCH;
#X text 75 50 iTuner MIDI/GUI INTERFACE;
#X text 321 130 <-- It communicates with iTuner using FUDI (ASCII)
;
#X text 321 99 <-- This is to be used with ituner v 0.1 for Python
;
#X obj 88 123 bng 25 250 50 0 empty empty Connect 17 7 0 10 -191407
-1 -1;
#X obj 340 284 fiddle~ 128 1 20 0;
#X floatatom 362 313 5 0 0 0 - - -;
#X text 401 313 cooked pitch;
#X text 356 250 window size (128-2048 \, default 1024);
#X text 355 264 number of peaks to find (20);
#X obj 329 216 adc~;
#X text 369 216 <-- microphone input;
#X floatatom 534 287 5 0 0 0 - - -;
#X connect 1 0 3 0;
#X connect 2 0 3 0;
#X connect 10 0 4 0;
#X connect 16 0 12 0;
#X connect 17 0 18 0;
#X connect 17 0 10 0;
#X connect 22 0 17 0;
#X connect 22 1 17 0;
#X connect 24 0 10 0;
