#N canvas 1848 188 794 656 10;
#X obj 83 188 ctlin 64;
#X text 80 164 Pedal;
#X obj 80 261 bng 15 250 50 0 empty empty empty 17 7 0 10 -262144 -1
-1;
#X obj 240 93 notein;
#X obj 296 137 tgl 15 0 empty empty empty 17 7 0 10 -262144 -1 -1 0
1;
#X obj 288 115 >= 1;
#X obj 239 142 spigot;
#X text 240 71 Notes;
#X obj 239 168 - 36;
#X floatatom 249 190 5 0 0 0 - - -;
#X text 81 49 |----- MIDI from Oxygen8 keyboard -------------------|
;
#X obj 83 213 sel 127;
#X obj 518 240 - 12;
#X obj 518 263 moses 10;
#X obj 177 213 sel 0 2 4 5 7 9 11 24;
#X msg 337 301 /framerate/increase;
#X msg 337 341 /frame/add;
#X msg 337 281 /framerate/decrease;
#X msg 337 261 /shot/save;
#X msg 337 241 /shot/reset;
#X msg 518 287 /shot/select \$1;
#X floatatom 518 316 5 0 0 0 - - -;
#X obj 337 408 list prepend send;
#X text 355 466 |----- Send FUDI messages to ToonLoop -------|;
#X obj 485 52 cnv 15 240 120 empty empty empty 20 12 0 14 -258113 -66577
0;
#X text 504 69 TOONLOOP MIDI INTERFACE;
#X text 503 99 Go to Media> MIDI Settings...;
#X text 503 113 Choose the right MIDI device.;
#X obj -1 314 bng 50 250 50 0 empty empty Connect 17 7 0 10 -4034 -1
-1;
#X obj 337 428 list trim;
#X obj -1 452 netsend;
#X msg -1 428 disconnect;
#X floatatom -1 473 0 0 0 0 - - -;
#X msg -1 405 connect localhost 15555;
#X obj 116 508 netreceive 17777;
#X obj -1 381 t b b;
#X obj 55 379 loadbang;
#X obj 116 529 print received;
#X obj 355 450 print sending;
#X obj 116 629 print sending;
#X obj 116 549 route /ping;
#X obj 116 569 list prepend /pong;
#X obj 116 589 list prepend send;
#X obj 116 609 list trim;
#X obj 614 322 cnv 15 120 120 empty empty empty 20 12 0 14 -258113
-66577 0;
#X msg 621 367 /quit;
#X msg 619 337 /ping hello 1 2;
#X msg 337 321 /frame/remove;
#X obj 337 505 hradio 30 1 0 10 empty empty empty 0 -8 0 10 -257985
-1 -1 0;
#X msg 337 544 /call shot_select \$1;
#X obj 346 158 bng 50 250 50 0 empty empty ADD 17 7 0 10 -4034 -1 -1
;
#X obj 401 158 bng 50 250 50 0 empty empty REMOVE 17 7 0 10 -258113
-1 -1;
#X msg 167 330 /call shot_save;
#X connect 0 0 11 0;
#X connect 3 0 6 0;
#X connect 3 1 5 0;
#X connect 5 0 4 0;
#X connect 5 0 6 1;
#X connect 6 0 8 0;
#X connect 8 0 9 0;
#X connect 8 0 14 0;
#X connect 11 0 2 0;
#X connect 11 0 16 0;
#X connect 12 0 13 0;
#X connect 13 0 20 0;
#X connect 14 0 16 0;
#X connect 14 1 47 0;
#X connect 14 3 15 0;
#X connect 14 4 17 0;
#X connect 14 6 18 0;
#X connect 14 7 19 0;
#X connect 14 8 12 0;
#X connect 15 0 22 0;
#X connect 16 0 22 0;
#X connect 17 0 22 0;
#X connect 18 0 22 0;
#X connect 19 0 22 0;
#X connect 20 0 21 0;
#X connect 20 0 22 0;
#X connect 22 0 29 0;
#X connect 28 0 35 0;
#X connect 29 0 30 0;
#X connect 29 0 38 0;
#X connect 30 0 32 0;
#X connect 31 0 30 0;
#X connect 33 0 30 0;
#X connect 34 0 37 0;
#X connect 34 0 40 0;
#X connect 34 1 35 0;
#X connect 35 0 33 0;
#X connect 35 1 31 0;
#X connect 36 0 33 0;
#X connect 40 0 41 0;
#X connect 41 0 42 0;
#X connect 42 0 43 0;
#X connect 43 0 39 0;
#X connect 43 0 30 0;
#X connect 45 0 22 0;
#X connect 46 0 22 0;
#X connect 47 0 22 0;
#X connect 48 0 49 0;
#X connect 49 0 22 0;
#X connect 50 0 16 0;
#X connect 51 0 47 0;
#X connect 52 0 22 0;
