#N canvas 17 25 1141 762 10;
#X msg 253 330 /framerate/increase;
#X msg 253 310 /framerate/decrease;
#X msg 253 290 /shot/save;
#X msg 253 270 /shot/reset;
#X obj 356 40 cnv 15 240 120 empty empty empty 20 12 0 14 -258113 -66577
0;
#X obj 39 182 cnv 15 120 120 empty empty empty 20 12 0 14 -258113 -66577
0;
#X msg 50 239 /quit;
#X msg 47 214 /ping hello 1 2;
#X obj 34 80 hradio 30 1 0 10 empty empty CLIP_NUMBER 0 -8 0 14 -258113
-1 -1 0;
#X obj 181 747 s toonloop;
#X obj 61 477 vsl 30 100 0 1 0 0 empty empty empty 0 -9 0 10 -258113
-1 -1 0 1;
#X obj 108 477 vsl 30 100 0 1 0 0 empty empty empty 0 -9 0 10 -4034
-1 -1 0 1;
#X obj 160 478 vsl 30 100 0 1 0 0 empty empty empty 0 -9 0 10 -4160
-1 -1 0 1;
#X obj 354 508 vsl 30 100 0 1 0 0 empty empty empty 0 -9 0 10 -191407
-1 -1 0 1;
#X obj 639 118 symbol;
#X msg 640 140 /config/set project_name \$1;
#X obj 395 503 vsl 30 100 0 1 0 0 empty empty empty 0 -9 0 10 -191407
-1 -1 0 1;
#X msg 47 191 /call clip_save;
#X msg 34 119 /call clip_select \$1;
#X obj 221 364 s toonloop;
#X obj 34 139 s toonloop;
#X msg 403 303 /config/set onionskin_opacity \$1;
#X obj 400 197 vsl 30 100 0 1 0 0 empty empty empty 0 -9 0 10 -191407
-1 -1 0 1;
#X obj 401 327 s toonloop;
#X text 28 436 |----- Chromakey colors \, thresh \, slope -------|
;
#X obj 642 46 cnv 15 240 65 empty empty empty 20 12 0 14 -258113 -66577
0;
#X symbolatom 695 78 25 0 0 0 - - -;
#X obj 654 66 bng 35 250 50 0 empty empty empty 17 7 0 10 -128992 -1
-1;
#N canvas 1468 457 313 469 NETWORK_SUB_PATCH 0;
#X obj 18 93 bng 50 250 50 0 empty empty Connect 17 7 0 10 -4034 -1
-1;
#X obj 84 114 list trim;
#X obj 18 231 netsend;
#X msg 18 207 disconnect;
#X floatatom 18 252 0 0 0 0 - - -;
#X msg 18 184 connect localhost 15555;
#X obj 18 160 t b b;
#X obj 74 158 loadbang;
#X obj 85 261 print received;
#X obj 82 137 print sending;
#X obj 85 361 print sending;
#X obj 85 281 route /ping;
#X obj 85 301 list prepend /pong;
#X obj 85 321 list prepend send;
#X obj 85 341 list trim;
#X obj 85 71 r toonloop;
#X obj 85 91 list prepend send;
#X text 15 49 |--- FUDI ASCII with ToonLoop ---|;
#X obj 25 23 inlet;
#X obj 85 240 netreceive 17777;
#X connect 0 0 6 0;
#X connect 1 0 2 0;
#X connect 1 0 9 0;
#X connect 2 0 4 0;
#X connect 3 0 2 0;
#X connect 5 0 2 0;
#X connect 6 0 5 0;
#X connect 6 1 3 0;
#X connect 7 0 5 0;
#X connect 11 0 12 0;
#X connect 12 0 13 0;
#X connect 13 0 14 0;
#X connect 14 0 10 0;
#X connect 14 0 2 0;
#X connect 15 0 16 0;
#X connect 16 0 1 0;
#X connect 18 0 0 0;
#X connect 19 0 8 0;
#X connect 19 0 11 0;
#X connect 19 1 6 0;
#X restore 373 125 pd NETWORK_SUB_PATCH;
#X text 647 48 |----- Project name (path) ----|;
#X obj 374 71 bng 50 250 50 0 empty empty Connect 17 7 0 10 -4034 -1
-1;
#X obj 163 157 bng 15 250 50 0 empty empty empty 17 7 0 10 -262144
-1 -1;
#X text 19 28 http://alexandre.quessy.net;
#X text 23 13 Alexandre Quessy;
#X obj 447 218 bng 50 250 50 0 empty empty effect_next 17 7 0 10 -258113
-1 -1;
#X obj 639 171 s toonloop;
#X text 370 49 TOONLOOP GUI INTERFACE;
#X obj 75 639 pack f f f;
#X obj 97 604 t b f;
#X obj 146 605 t b f;
#X obj 65 748 print;
#X msg 78 699 /option/group chromakey target_color \$1 \$2 \$3;
#X msg 354 623 /option/group chromakey thresh \$1;
#X msg 353 649 /option/group chromakey slope \$1;
#X msg 711 387 /frame/add;
#X msg 711 408 /frame/remove;
#X obj 687 459 s toonloop;
#X obj 708 329 bng 50 250 50 0 empty empty frame_add 17 7 0 10 -258113
-1 -1;
#X msg 640 654 /call print_optgroups;
#X obj 639 683 s toonloop;
#X msg 446 275 /call effect_next;
#X msg 90 669 /option/group leavecolor target_color \$1 \$2 \$3;
#N canvas 17 25 1064 582 convolution 0;
#X obj 45 289 s toonloop;
#X obj 56 87 vsl 30 100 0 5 0 0 empty empty empty 0 -9 0 10 -191407
-1 -1 1500 1;
#X obj 313 92 vsl 30 100 0 5 0 0 empty empty empty 0 -9 0 10 -191407
-1 -1 2200 1;
#X text 53 32 Controls for the convolution effect.;
#X msg 56 202 /option/group convolution width \$1;
#X msg 313 202 /option/group convolution height \$1;
#X obj 241 246 vsl 30 100 0 1 0 0 empty empty empty 0 -9 0 10 -191407
-1 -1 300 1;
#X obj 288 246 vsl 30 100 0 1 0 0 empty empty empty 0 -9 0 10 -191407
-1 -1 200 1;
#X obj 340 247 vsl 30 100 0 1 0 0 empty empty empty 0 -9 0 10 -191407
-1 -1 100 1;
#X obj 255 408 pack f f f;
#X obj 277 373 t b f;
#X obj 326 374 t b f;
#X msg 254 437 /option/group convolution weight_row_0 \$1 \$2 \$3;
#X obj 253 469 s toonloop;
#X obj 590 244 vsl 30 100 0 1 0 0 empty empty empty 0 -9 0 10 -191407
-1 -1 500 1;
#X obj 637 244 vsl 30 100 0 1 0 0 empty empty empty 0 -9 0 10 -191407
-1 -1 400 1;
#X obj 689 245 vsl 30 100 0 1 0 0 empty empty empty 0 -9 0 10 -191407
-1 -1 400 1;
#X obj 604 406 pack f f f;
#X obj 626 371 t b f;
#X obj 675 372 t b f;
#X obj 602 467 s toonloop;
#X obj 752 98 vsl 30 100 0 1 0 0 empty empty empty 0 -9 0 10 -191407
-1 -1 400 1;
#X obj 799 98 vsl 30 100 0 1 0 0 empty empty empty 0 -9 0 10 -191407
-1 -1 300 1;
#X obj 851 99 vsl 30 100 0 1 0 0 empty empty empty 0 -9 0 10 -191407
-1 -1 200 1;
#X obj 766 260 pack f f f;
#X obj 788 225 t b f;
#X obj 837 226 t b f;
#X obj 764 321 s toonloop;
#X msg 765 289 /option/group convolution weight_row_2 \$1 \$2 \$3;
#X msg 603 435 /option/group convolution weight_row_1 \$1 \$2 \$3;
#X connect 1 0 4 0;
#X connect 1 0 5 0;
#X connect 2 0 5 0;
#X connect 4 0 0 0;
#X connect 5 0 0 0;
#X connect 6 0 9 0;
#X connect 7 0 10 0;
#X connect 8 0 11 0;
#X connect 9 0 12 0;
#X connect 10 0 9 0;
#X connect 10 1 9 1;
#X connect 11 0 9 0;
#X connect 11 1 9 2;
#X connect 12 0 13 0;
#X connect 14 0 17 0;
#X connect 15 0 18 0;
#X connect 16 0 19 0;
#X connect 17 0 29 0;
#X connect 18 0 17 0;
#X connect 18 1 17 1;
#X connect 19 0 17 0;
#X connect 19 1 17 2;
#X connect 21 0 24 0;
#X connect 22 0 25 0;
#X connect 23 0 26 0;
#X connect 24 0 28 0;
#X connect 25 0 24 0;
#X connect 25 1 24 1;
#X connect 26 0 24 0;
#X connect 26 1 24 2;
#X connect 28 0 27 0;
#X connect 29 0 20 0;
#X restore 516 505 pd convolution;
#X connect 0 0 19 0;
#X connect 1 0 19 0;
#X connect 2 0 19 0;
#X connect 3 0 19 0;
#X connect 6 0 19 0;
#X connect 7 0 19 0;
#X connect 8 0 18 0;
#X connect 10 0 37 0;
#X connect 11 0 38 0;
#X connect 12 0 39 0;
#X connect 13 0 42 0;
#X connect 14 0 15 0;
#X connect 15 0 35 0;
#X connect 16 0 43 0;
#X connect 17 0 19 0;
#X connect 18 0 20 0;
#X connect 21 0 23 0;
#X connect 22 0 21 0;
#X connect 26 0 14 1;
#X connect 27 0 14 0;
#X connect 30 0 28 0;
#X connect 34 0 50 0;
#X connect 37 0 41 0;
#X connect 37 0 51 0;
#X connect 38 0 37 0;
#X connect 38 1 37 1;
#X connect 39 0 37 0;
#X connect 39 1 37 2;
#X connect 41 0 40 0;
#X connect 41 0 9 0;
#X connect 42 0 9 0;
#X connect 43 0 9 0;
#X connect 44 0 46 0;
#X connect 45 0 46 0;
#X connect 47 0 44 0;
#X connect 48 0 49 0;
#X connect 50 0 23 0;
#X connect 51 0 9 0;
