#N canvas 120 162 1047 755 10;
#X obj 184 107 ctlin 64;
#X text 182 89 Pedal;
#X obj 33 111 notein;
#X obj 90 167 tgl 15 0 empty empty empty 17 7 0 10 -262144 -1 -1 0
1;
#X obj 63 133 >= 1;
#X obj 28 154 spigot;
#X obj 28 180 - 36;
#X floatatom 38 202 5 0 0 0 - - -;
#X obj 184 132 sel 127;
#X obj 339 204 - 12;
#X obj 344 260 moses 10;
#X obj 30 219 sel 0 2 4 5 7 9 11 24;
#X msg 198 279 /framerate/increase;
#X msg 198 319 /frame/add;
#X msg 198 259 /framerate/decrease;
#X msg 198 239 /shot/save;
#X msg 198 219 /shot/reset;
#X floatatom 461 286 5 0 0 0 - - -;
#X obj 346 30 cnv 15 240 120 empty empty empty 20 12 0 14 -258113 -66577
0;
#X text 358 57 Go to Media> MIDI Settings...;
#X text 349 69 Choose the right MIDI device.;
#X obj 386 309 cnv 15 120 120 empty empty empty 20 12 0 14 -258113
-66577 0;
#X msg 398 390 /quit;
#X msg 396 360 /ping hello 1 2;
#X msg 198 299 /frame/remove;
#X obj 170 436 hradio 30 1 0 10 empty empty CLIP_NUMBER 0 -8 0 14 -258113
-1 -1 0;
#X obj 194 154 bng 50 250 50 0 empty empty ADD 17 7 0 10 -4034 -1 -1
;
#X obj 259 155 bng 50 250 50 0 empty empty REMOVE 17 7 0 10 -258113
-1 -1;
#X obj 220 722 s toonloop;
#X msg 195 645 /config/set chromakey_r \$1;
#X msg 252 665 /config/set chromakey_g \$1;
#X msg 295 687 /config/set chromakey_b \$1;
#X msg 318 707 /config/set chromakey_thresh \$1;
#X obj 198 525 vsl 30 100 0 1 0 0 empty empty empty 0 -9 0 10 -258113
-1 -1 0 1;
#X obj 229 535 vsl 30 100 0 1 0 0 empty empty empty 0 -9 0 10 -4034
-1 -1 0 1;
#X obj 264 535 vsl 30 100 0 1 0 0 empty empty empty 0 -9 0 10 -4160
-1 -1 0 1;
#X obj 321 535 vsl 30 100 0 1 0 0 empty empty empty 0 -9 0 10 -191407
-1 -1 4700 1;
#X obj 428 608 symbol;
#X msg 429 630 /config/set project_name \$1;
#X obj 379 535 vsl 30 100 0 1 0 0 empty empty empty 0 -9 0 10 -191407
-1 -1 0 1;
#X msg 356 728 /config/set chromakey_slope \$1;
#X obj 360 155 key;
#X floatatom 396 168 3 0 0 0 - - -;
#X obj 391 189 sel 32;
#X obj 390 214 spigot;
#X obj 410 238 print key;
#X obj 352 113 tgl 35 0 empty empty enable_space_key_in_pd 35 15 0
14 -4160 -1 -1 0 1;
#X msg 344 284 /clip/select \$1;
#X msg 394 318 /call clip_save;
#X msg 170 475 /call clip_select \$1;
#X obj 219 391 s toonloop;
#X obj 170 495 s toonloop;
#X obj 897 441 openpanel;
#X obj 935 325 bng 35 250 50 0 empty empty openpanel 35 7 0 14 -258113
-1 -1;
#X obj 608 497 s toonloop;
#X msg 609 474 /call bgimage_load \$1;
#X obj 605 445 symbol;
#X obj 609 316 hradio 30 1 0 10 empty empty BACKGROUND_IMAGE 0 -8 0
14 -258113 -1 -1 0;
#X msg 575 377 /home/toonloop/src/toonloop/trunk/py/toon/data/bgimage_0\$1.jpg
;
#X msg 608 413 /home/aalex/src/toonloop/trunk/py/toon/data/bgimage_0\$1.jpg
;
#X msg 510 270 /config/set onionskin_opacity \$1;
#X obj 507 164 vsl 30 100 0 1 0 0 empty empty empty 0 -9 0 10 -191407
-1 -1 0 1;
#X obj 553 201 hradio 30 1 0 3 empty empty EFFECT 0 -8 0 14 -258113
-1 -1 0;
#X obj 508 294 s toonloop;
#X msg 553 242 /call effect_select \$1;
#X text 547 164 |--- Effect (none \, chromakey \, onionskin) ---|;
#X text 166 512 |----- Chromakey colors \, thresh \, slope -------|
;
#X obj 431 536 cnv 15 240 65 empty empty empty 20 12 0 14 -258113 -66577
0;
#X symbolatom 484 568 25 0 0 0 - - -;
#X obj 443 556 bng 35 250 50 0 empty empty empty 17 7 0 10 -128992
-1 -1;
#X text 29 83 Keyboard Notes;
#N canvas 1468 457 313 469 NETWORK_SUB_PATCH 0;
#X obj 18 93 bng 50 250 50 0 empty empty Connect 17 7 0 10 -4034 -1
-1;
#X obj 84 114 list trim;
#X obj 18 231 netsend;
#X msg 18 207 disconnect;
#X floatatom 18 252 0 0 0 0 - - -;
#X msg 18 184 connect localhost 15555;
#X obj 85 240 netreceive 17777;
#X obj 18 160 t b b;
#X obj 74 158 loadbang;
#X obj 85 261 print received;
#X obj 82 137 print sending;
#X obj 85 361 print sending;
#X obj 85 281 route /ping;
#X obj 85 301 list prepend /pong;
#X obj 85 321 list prepend send;
#X obj 85 341 list trim;
#X obj 85 71 r toonloop;
#X obj 85 91 list prepend send;
#X text 15 49 |--- FUDI ASCII with ToonLoop ---|;
#X obj 25 23 inlet;
#X connect 0 0 7 0;
#X connect 1 0 2 0;
#X connect 1 0 10 0;
#X connect 2 0 4 0;
#X connect 3 0 2 0;
#X connect 5 0 2 0;
#X connect 6 0 9 0;
#X connect 6 0 12 0;
#X connect 6 1 7 0;
#X connect 7 0 5 0;
#X connect 7 1 3 0;
#X connect 8 0 5 0;
#X connect 12 0 13 0;
#X connect 13 0 14 0;
#X connect 14 0 15 0;
#X connect 15 0 11 0;
#X connect 15 0 2 0;
#X connect 16 0 17 0;
#X connect 17 0 1 0;
#X connect 19 0 0 0;
#X restore 436 95 pd NETWORK_SUB_PATCH;
#X text 17 67 |-- MIDI from Oxygen8 keyboard --|;
#X msg 901 462 set \$1;
#X msg 900 481;
#X text 436 538 |----- Project name (path) ----|;
#X text 593 58 <-- This is to be used with toonloop v 1 beta for Python
;
#X text 592 74 <-- Main Network sub patch is HERE;
#X text 593 89 <-- It communicates with ToonLoop using FUDI (ASCII)
;
#X text 360 39 TOONLOOP MIDI/GUI INTERFACE;
#X text 594 104 <-- Made by Alexandre Quessy in 2009;
#X text 592 119 <-- GNU GPL version 3;
#X obj 594 5 bng 50 250 50 0 empty empty Connect 17 7 0 10 -4034 -1
-1;
#X obj 607 351 + 1;
#X obj 16 298 print notein.on;
#X obj 337 232 moses 0;
#X obj 37 615 ctlin;
#X floatatom 37 676 5 0 0 0 - - -;
#X floatatom 87 678 5 0 0 0 - - -;
#X floatatom 131 680 5 0 0 0 - - -;
#X obj 14 337 ctlin 74;
#X obj 14 358 / 127;
#X obj 81 357 / 127;
#X obj 18 456 / 127;
#X obj 86 454 / 127;
#X obj 19 554 / 127;
#X obj 18 435 ctlin 76;
#X obj 85 434 ctlin 32;
#X obj 18 534 ctlin 78;
#X floatatom 16 383 5 0 0 0 - - -;
#X floatatom 79 384 5 0 0 0 - - -;
#X floatatom 88 475 5 0 0 0 - - -;
#X floatatom 20 482 5 0 0 0 - - -;
#X floatatom 19 576 5 0 0 0 - - -;
#X obj 81 336 ctlin 71;
#X msg 794 210 /call bgimage_glob_next 1;
#X obj 153 147 bng 15 250 50 0 empty empty empty 17 7 0 10 -262144
-1 -1;
#X obj 97 637 spigot;
#X obj 781 276 s toonloop;
#X obj 352 92 loadbang;
#X obj 920 147 bng 35 250 50 0 empty empty empty 17 7 0 10 -128992
-1 -1;
#X msg 789 232 /call bgimage_glob_next 10;
#X msg 792 252 /call bgimage_glob_next 100;
#X obj 873 120 bng 35 250 50 0 empty empty empty 17 7 0 10 -128992
-1 -1;
#X text 49 32 http://alexandre.quessy.net;
#X text 53 17 Alexandre Quessy;
#X text 807 8 patrick_boivin_stop_motion;
#X text 811 25 le roi et l'oiseau;
#X msg 646 641 /home/aalex/toon/images_320x240/texture\$1.jpg;
#X floatatom 659 614 5 0 0 0 - - -;
#X floatatom 814 516 5 0 0 0 - - -;
#X msg 704 556 /home/aalex/toon/images_320x240/ciel\$1.jpg;
#X obj 674 717 s toonloop;
#X obj 678 674 tgl 15 0 empty empty empty 17 7 0 10 -262144 -1 -1 0
1;
#X msg 676 694 /config/set image_flip_horizontal \$1;
#X floatatom 739 586 5 0 0 0 - - -;
#X msg 732 617 /home/aalex/toon/images_320x240/barcelone\$1.jpg;
#X connect 0 0 8 0;
#X connect 2 0 5 0;
#X connect 2 1 4 0;
#X connect 4 0 3 0;
#X connect 4 0 5 1;
#X connect 5 0 6 0;
#X connect 6 0 7 0;
#X connect 6 0 11 0;
#X connect 6 0 84 0;
#X connect 8 0 106 0;
#X connect 8 0 13 0;
#X connect 9 0 85 0;
#X connect 10 0 47 0;
#X connect 10 0 17 0;
#X connect 11 0 13 0;
#X connect 11 1 24 0;
#X connect 11 3 12 0;
#X connect 11 4 14 0;
#X connect 11 6 15 0;
#X connect 11 7 16 0;
#X connect 11 8 9 0;
#X connect 12 0 50 0;
#X connect 13 0 50 0;
#X connect 14 0 50 0;
#X connect 15 0 50 0;
#X connect 16 0 50 0;
#X connect 22 0 50 0;
#X connect 23 0 50 0;
#X connect 24 0 50 0;
#X connect 25 0 49 0;
#X connect 26 0 13 0;
#X connect 27 0 24 0;
#X connect 29 0 28 0;
#X connect 30 0 28 0;
#X connect 31 0 28 0;
#X connect 32 0 28 0;
#X connect 33 0 29 0;
#X connect 34 0 30 0;
#X connect 35 0 31 0;
#X connect 36 0 32 0;
#X connect 37 0 38 0;
#X connect 38 0 28 0;
#X connect 39 0 40 0;
#X connect 40 0 28 0;
#X connect 41 0 42 0;
#X connect 41 0 43 0;
#X connect 43 0 44 0;
#X connect 44 0 26 0;
#X connect 44 0 45 0;
#X connect 46 0 44 1;
#X connect 47 0 50 0;
#X connect 48 0 50 0;
#X connect 49 0 51 0;
#X connect 52 0 55 0;
#X connect 52 0 73 0;
#X connect 53 0 52 0;
#X connect 55 0 54 0;
#X connect 56 0 55 0;
#X connect 57 0 83 0;
#X connect 58 0 56 0;
#X connect 59 0 56 0;
#X connect 60 0 63 0;
#X connect 61 0 60 0;
#X connect 62 0 64 0;
#X connect 64 0 63 0;
#X connect 68 0 37 1;
#X connect 69 0 37 0;
#X connect 73 0 74 0;
#X connect 82 0 71 0;
#X connect 83 0 59 0;
#X connect 85 1 10 0;
#X connect 86 0 87 0;
#X connect 86 1 88 0;
#X connect 86 2 89 0;
#X connect 90 0 91 0;
#X connect 91 0 99 0;
#X connect 91 0 29 0;
#X connect 92 0 100 0;
#X connect 93 0 102 0;
#X connect 93 0 31 0;
#X connect 94 0 101 0;
#X connect 94 0 32 0;
#X connect 95 0 103 0;
#X connect 95 0 40 0;
#X connect 96 0 93 0;
#X connect 97 0 94 0;
#X connect 98 0 95 0;
#X connect 104 0 92 0;
#X connect 105 0 108 0;
#X connect 109 0 46 0;
#X connect 110 0 112 0;
#X connect 111 0 108 0;
#X connect 112 0 108 0;
#X connect 113 0 105 0;
#X connect 118 0 56 0;
#X connect 119 0 118 0;
#X connect 120 0 121 0;
#X connect 121 0 56 0;
#X connect 123 0 124 0;
#X connect 124 0 122 0;
#X connect 125 0 126 0;
#X connect 126 0 56 0;
